<svg width="560" height="315" xmlns="http://www.w3.org/2000/svg">
 <!-- Created with Method Draw - http://github.com/duopixel/Method-Draw/ -->
 <g>
  <title>background</title>
  <rect fill="#2e4053" id="canvas_background" height="317" width="562" y="-1" x="-1"/>
  <g display="none" overflow="visible" y="0" x="0" height="100%" width="100%" id="canvasGrid">
   <rect fill="url(#gridpattern)" stroke-width="0" y="0" x="0" height="100%" width="100%"/>
  </g>
 </g>
 <g>
  <title>Layer 1</title>
  <ellipse ry="20" rx="20" id="svg_1" cy="40" cx="40" stroke-width="0" stroke="#000" fill="#212f3c"/>
  <rect rx="10" id="svg_3" height="20" width="250" y="30" x="70" stroke-opacity="null" stroke-width="0" stroke="#000" fill="#212f3c"/>
  <rect rx="5" id="svg_4" height="8" width="420" y="288.500546" x="62.999961" fill-opacity="null" stroke-opacity="null" stroke-width="0" stroke="#000" fill="#212f3c"/>
  <path transform="rotate(90, 36.5209, 291.816)" id="svg_7" d="m22.759003,303.858032l13.761864,-24.083252l13.761871,24.083252z" fill-opacity="null" stroke-opacity="null" stroke-width="0" stroke="#000" fill="#212f3c"/>
  <path transform="rotate(180, 518.296, 292.261)" id="svg_8" d="m533.75116,298.674561l0,-12.82785l-7.296204,0l-10.934387,-8.971558l0,30.770966l10.9245,-8.971558l7.306091,0zm-22.42392,1.477081c0.63446,0.63446 1.665436,0.63446 2.299896,0c0.63446,-0.644379 0.63446,-1.665436 -0.009949,-2.299896l0,0c-1.397766,-1.407684 -2.260162,-3.330872 -2.260162,-5.472137c0,-2.131378 0.862396,-4.054565 2.260162,-5.452332c0.644409,-0.63446 0.644409,-1.665466 0,-2.299896c-0.3172,-0.31723 -0.733582,-0.475861 -1.149902,-0.475861c-0.416382,0 -0.832733,0.15863 -1.149933,0.475861c-1.982666,1.982666 -3.211914,4.728638 -3.211914,7.752228c0,3.033478 1.239136,5.789368 3.221802,7.772034zm-3.727356,3.727417c0.634399,0.63446 1.665405,0.63446 2.289978,0c0.644348,-0.63446 0.644348,-1.665436 0,-2.299896c-2.349487,-2.359375 -3.806763,-5.601044 -3.806763,-9.189667c0,-3.598541 1.457275,-6.840179 3.806763,-9.199554c0.634399,-0.63446 0.634399,-1.655518 0,-2.289978c-0.317261,-0.31723 -0.733582,-0.47583 -1.149963,-0.47583c-0.416382,0 -0.832703,0.1586 -1.149963,0.47583c-2.934296,2.934357 -4.758362,7.008728 -4.748444,11.489532c-0.009918,4.480835 1.814148,8.555206 4.758392,11.489563z" fill-opacity="null" stroke-opacity="null" stroke-width="0" stroke="#000" fill="#212f3c"/>
 </g>
</svg>